<svg width="38" height="38" viewBox="0 0 38 38" fill="none" xmlns="http://www.w3.org/2000/svg">
<g clip-path="url(#clip0_260_17)">
<path d="M2.94643 17.8943C3.93459 16.7856 5.73414 16.0561 8.32439 16.0481C7.18106 17.9352 6.36197 20.841 7.60233 24.8883C7.60285 24.8899 7.60337 24.8916 7.60388 24.8933L10.0454 33.1555C9.5331 33.338 8.95494 33.44 8.3679 33.44C7.50058 33.44 6.67691 33.2292 6.04036 32.8833C5.40264 32.5368 5.02479 32.0985 4.88322 31.672L2.31951 22.9267L2.3196 22.9267L2.31558 22.9136C1.60751 20.6151 1.98789 18.9698 2.94643 17.8943ZM30.3493 24.9368C31.6092 20.8536 30.7982 17.9416 29.6345 16.048C32.2342 16.053 34.0459 16.7834 35.0392 17.8952C35.9993 18.9699 36.3798 20.6132 35.6615 22.9095L35.6588 22.918L35.6563 22.9267L33.0926 31.672C32.951 32.0985 32.5732 32.5368 31.9354 32.8833C31.2989 33.2292 30.4752 33.44 29.6079 33.44C29.0206 33.44 28.4421 33.3379 27.9296 33.1552L30.3493 24.9368ZM22.7282 4.92303L22.7286 4.92495C23.0151 6.18956 22.7476 8.02972 21.9862 9.56332C21.2119 11.1229 20.1254 12.008 18.9999 12.008C17.8596 12.008 16.7677 11.1191 15.992 9.56205C15.229 8.03069 14.9612 6.19302 15.2463 4.92864C15.6974 3.01454 17.3458 1.79199 18.9999 1.79199C20.6356 1.79199 22.3008 3.01933 22.7282 4.92303ZM5.33414 7.08951L5.33468 7.08714C5.69024 5.53392 7.05021 4.52799 8.3679 4.52799C9.68559 4.52799 11.0456 5.53392 11.4011 7.08714L11.4017 7.08951C11.6378 8.1095 11.4205 9.62863 10.7825 10.9048C10.1321 12.2054 9.24403 12.896 8.3679 12.896C7.49177 12.896 6.60365 12.2054 5.95332 10.9048C5.31525 9.62863 5.09803 8.1095 5.33414 7.08951ZM26.5981 7.08951L26.5987 7.08714C26.955 5.53047 28.3176 4.52799 29.6079 4.52799C30.9256 4.52799 32.2856 5.53392 32.6411 7.08714L32.6417 7.08951C32.8778 8.1095 32.6605 9.62863 32.0225 10.9048C31.3721 12.2054 30.484 12.896 29.6079 12.896C28.7471 12.896 27.8642 12.21 27.2151 10.9063C26.5792 9.62924 26.362 8.10963 26.5981 7.08951ZM26.2536 23.6771L26.2505 23.6869L26.2477 23.6968L23.2518 34.0027C23.0757 34.5408 22.5911 35.0885 21.8016 35.5172C21.0169 35.9435 20.0182 36.2 18.9999 36.2C17.9549 36.2 16.9507 35.9423 16.1682 35.5172C15.3815 35.09 14.9004 34.5428 14.7238 34.0019L11.7035 23.6948L11.7015 23.6877L11.6993 23.6806C10.8477 20.927 11.2936 18.909 12.4785 17.5751C13.6979 16.2024 15.8962 15.328 18.9999 15.328C22.091 15.328 24.2825 16.202 25.4959 17.5736C26.6748 18.9062 27.1162 20.9233 26.2536 23.6771Z" stroke="white" stroke-width="2"/>
</g>
<defs>
<clipPath id="clip0_260_17">
<rect width="38" height="38" fill="white"/>
</clipPath>
</defs>
</svg>
