<svg width="40" height="40" viewBox="0 0 40 40" fill="none" xmlns="http://www.w3.org/2000/svg">
<g clip-path="url(#clip0_260_14)">
<path d="M27.2852 30.2734C27.0117 28.7891 26.5039 27.4219 25.7617 26.1719C25.0195 24.9219 24.1016 23.8411 23.0078 22.9297C21.9141 22.0182 20.6836 21.3021 19.3164 20.7812C17.9492 20.2604 16.5104 20 15 20C13.8542 20 12.7474 20.1497 11.6797 20.4492C10.612 20.7487 9.61589 21.1654 8.69141 21.6992C7.76693 22.2331 6.92708 22.8841 6.17188 23.6523C5.41667 24.4206 4.76562 25.2669 4.21875 26.1914C3.67188 27.1159 3.2487 28.112 2.94922 29.1797C2.64974 30.2474 2.5 31.3542 2.5 32.5H0C0 30.9766 0.227865 29.4857 0.683594 28.0273C1.13932 26.569 1.79688 25.2214 2.65625 23.9844C3.51562 22.7474 4.53776 21.6471 5.72266 20.6836C6.90755 19.7201 8.22917 18.9844 9.6875 18.4766C8.95833 18.0078 8.30729 17.4674 7.73438 16.8555C7.16146 16.2435 6.66667 15.5729 6.25 14.8438C5.83333 14.1146 5.52734 13.3398 5.33203 12.5195C5.13672 11.6992 5.02604 10.8594 5 10C5 8.61979 5.26042 7.32422 5.78125 6.11328C6.30208 4.90234 7.01172 3.84115 7.91016 2.92969C8.80859 2.01823 9.86979 1.30208 11.0938 0.78125C12.3177 0.260417 13.6198 0 15 0C16.3802 0 17.6758 0.260417 18.8867 0.78125C20.0977 1.30208 21.1589 2.01172 22.0703 2.91016C22.9818 3.80859 23.6979 4.86979 24.2188 6.09375C24.7396 7.31771 25 8.61979 25 10C25 10.8594 24.8958 11.6992 24.6875 12.5195C24.4792 13.3398 24.1667 14.1146 23.75 14.8438C23.3333 15.5729 22.8451 16.2435 22.2852 16.8555C21.7253 17.4674 21.0677 18.0078 20.3125 18.4766C21.6016 18.9714 22.793 19.6224 23.8867 20.4297C24.9805 21.237 25.9375 22.168 26.7578 23.2227C27.5781 24.2773 28.2617 25.4297 28.8086 26.6797C29.3555 27.9297 29.707 29.2448 29.8633 30.625L28.75 31.7578L27.2852 30.2734ZM7.5 10C7.5 11.0417 7.69531 12.0117 8.08594 12.9102C8.47656 13.8086 9.01042 14.6029 9.6875 15.293C10.3646 15.9831 11.1589 16.5234 12.0703 16.9141C12.9818 17.3047 13.9583 17.5 15 17.5C16.0286 17.5 16.9987 17.3047 17.9102 16.9141C18.8216 16.5234 19.6159 15.9896 20.293 15.3125C20.9701 14.6354 21.5104 13.8411 21.9141 12.9297C22.3177 12.0182 22.513 11.0417 22.5 10C22.5 8.97135 22.3047 8.0013 21.9141 7.08984C21.5234 6.17839 20.9896 5.38411 20.3125 4.70703C19.6354 4.02995 18.8346 3.48958 17.9102 3.08594C16.9857 2.68229 16.0156 2.48698 15 2.5C13.9583 2.5 12.9883 2.69531 12.0898 3.08594C11.1914 3.47656 10.3971 4.01042 9.70703 4.6875C9.01693 5.36458 8.47656 6.16536 8.08594 7.08984C7.69531 8.01432 7.5 8.98438 7.5 10ZM39.6289 28.3789L28.75 39.2773L23.4961 34.0039L25.2539 32.2461L28.75 35.7227L37.8711 26.6211L39.6289 28.3789Z" fill="white"/>
</g>
<defs>
<clipPath id="clip0_260_14">
<rect width="40" height="40" fill="white"/>
</clipPath>
</defs>
</svg>
