<svg width="24" height="26" viewBox="0 0 24 26" fill="none" xmlns="http://www.w3.org/2000/svg">
<path d="M19.0621 8.88029C19.0621 6.93366 18.3178 5.06677 16.9928 3.6903C15.6679 2.31382 13.8709 1.54053 11.9972 1.54053C10.1235 1.54053 8.32652 2.31382 7.0016 3.6903C5.67668 5.06677 4.93234 6.93366 4.93234 8.88029C4.93234 17.4434 1.3999 19.8899 1.3999 19.8899H22.5945C22.5945 19.8899 19.0621 17.4434 19.0621 8.88029Z" stroke="white" stroke-width="2" stroke-linecap="round" stroke-linejoin="round"/>
<path d="M14.0339 23.3305C13.8269 23.6781 13.5298 23.9666 13.1722 24.1671C12.8148 24.3677 12.4095 24.4733 11.9969 24.4733C11.5843 24.4733 11.179 24.3677 10.8215 24.1671C10.464 23.9666 10.1668 23.6781 9.95984 23.3305" stroke="white" stroke-width="2" stroke-linecap="round" stroke-linejoin="round"/>
</svg>
