<svg width="32" height="32" viewBox="0 0 32 32" fill="none" xmlns="http://www.w3.org/2000/svg">
<path d="M15.8447 20.5C18.3301 20.5 20.3447 18.4854 20.3447 16C20.3447 13.5147 18.3301 11.5 15.8447 11.5C13.3594 11.5 11.3447 13.5147 11.3447 16C11.3447 18.4854 13.3594 20.5 15.8447 20.5Z" stroke="white" stroke-width="2" stroke-linecap="round" stroke-linejoin="round"/>
<path d="M27.4336 13.5931L25.7871 9.6172L28 7L25 4L22.397 6.22443L18.3367 4.55461L17.4029 1H14.4715L13.5237 4.6017L9.55662 6.27394L7 4L4 7L6.18006 9.68327L4.55875 13.6694L1 14.5V17.5L4.60167 18.4833L6.27362 22.4495L4 25L7 28L9.68674 25.8105L13.5955 27.4185L14.5 31H17.5L18.4067 27.4198L22.3827 25.7732C23.0454 26.2469 25 28 25 28L28 25L25.7738 22.3741L27.4208 18.397L30.9999 17.4658L31 14.5L27.4336 13.5931Z" stroke="white" stroke-width="2" stroke-linecap="round" stroke-linejoin="round"/>
</svg>
